# xmcd CD database file
#
# Track frame offsets:
#	182
#	18197
#	29880
#	51260
#	78392
#	98917
#	114535
#	131575
#	144715
#	160165
#	178177
#	195182
#	207710
#	227767
#	246755
#
# Disc length: 3575 seconds
#
# Revision: 0
# Processed by: cddbd v1.5.2PL0 Copyright (c) Steve Scherf et al.
# Submitted via: CDex 1.70beta2
#
DISCID=d30df50f
DTITLE=K. D. Lang - Summertime
DYEAR=1993
DGENRE=Country
TTITLE0=Luck In My Eyes
TTITLE1=Don't Let The Stars Get Into Your Eyes
TTITLE2=Save Me
TTITLE3=Still Thrives This Love
TTITLE4=Miss Chatelaine
TTITLE5=The Mind Of Love
TTITLE6=Wash Me Clean
TTITLE7=Riding The Rails
TTITLE8=Trail Of Broken Hearts
TTITLE9=Constant Craving
TTITLE10=Barefoot
TTITLE11=Big Big Love
TTITLE12=Season Of Hollow Soul
TTITLE13=Black Coffee
TTITLE14=Crying
EXTD=YEAR: 1993
EXTT0=
EXTT1=
EXTT2=
EXTT3=
EXTT4=
EXTT5=
EXTT6=
EXTT7=
EXTT8=
EXTT9=
EXTT10=
EXTT11=
EXTT12=
EXTT13=
EXTT14=
PLAYORDER=
